<?xml version="1.0" ?><svg id="blue_copy" style="enable-background:new 0 0 100 100;" version="1.1" viewBox="0 0 100 100" xml:space="preserve" xmlns="http://www.w3.org/2000/svg" xmlns:xlink="http://www.w3.org/1999/xlink"><g id="Layer_2_copy_2"><path d="M71.393,26.598c-0.811-6.427-5.848-12.63-12.393-13.566c-3.385-0.484-6.222,0.576-7.762,1.311v53.41   c-2.469-1.286-5.5-2.054-8.789-2.054c-8.261,0-14.959,4.788-14.959,10.695c0,5.906,6.697,10.695,14.959,10.695   c8.262,0,14.959-4.788,14.959-10.695c0-0.242,0-31.343,0-46.645c0.859-0.883,1.611-1.133,2.167-1.182   c2.753-0.242,5.987,3.976,7.879,10.637C68.31,38.175,72.231,33.24,71.393,26.598z"/><g><path d="M57.574,27.568c-0.536,0.085-0.886,0.237-0.97,0.278c-0.365,0.179-0.768,0.462-1.197,0.904c0,15.302,0,46.403,0,46.645    c0,5.906-6.697,10.695-14.959,10.695c-2.774,0-5.362-0.549-7.589-1.49c2.597,1.553,5.939,2.49,9.589,2.49    c8.261,0,14.959-4.788,14.959-10.695c0-0.242,0-31.343,0-46.645c0.285-0.283,1.014-0.93,2.167-1.182    c1.012-0.221,1.841-0.025,2.227,0.092c-0.587-0.385-1.114-0.609-1.484-0.742C59.771,27.723,58.776,27.379,57.574,27.568z"/><path d="M71.393,26.598c-0.688-5.456-4.427-10.736-9.542-12.784c4.072,2.482,6.947,7.068,7.542,11.784    c0.619,4.91-1.36,8.882-2.782,11.038c0.302,0.809,0.585,1.664,0.842,2.568C68.31,38.175,72.231,33.24,71.393,26.598z"/></g><path d="M71.393,26.598c-0.811-6.427-5.848-12.63-12.393-13.566   c-3.385-0.484-6.222,0.576-7.762,1.311v53.41c-2.469-1.286-5.5-2.054-8.789-2.054c-8.261,0-14.959,4.788-14.959,10.695   c0,5.906,6.697,10.695,14.959,10.695c8.262,0,14.959-4.788,14.959-10.695c0-0.242,0-31.343,0-46.645   c0.859-0.883,1.611-1.133,2.167-1.182c2.753-0.242,5.987,3.976,7.879,10.637C68.31,38.175,72.231,33.24,71.393,26.598z" style="fill:none;stroke:#000000;stroke-miterlimit:10;"/></g></svg>